<svg xmlns="http://www.w3.org/2000/svg" version="1.1" xmlns:xlink="http://www.w3.org/1999/xlink" xmlns:svgjs="http://svgjs.com/svgjs" width="1440" height="560" preserveAspectRatio="none" viewBox="0 0 1440 560"><g mask="url(&quot;#SvgjsMask1017&quot;)" fill="none"><path d="M236.53 560.58C428.63 553.48 565.83 253.29 938.11 245.92 1310.39 238.55 1458.32 62.66 1639.69 61.12" stroke="rgba(51,121,194,0.58)" stroke-width="2"></path><path d="M405.56 564.16C513.3 550.07 489.66 302.97 752.66 302.59 1015.66 302.21 1271.07 414.23 1446.86 414.59" stroke="rgba(51,121,194,0.58)" stroke-width="2"></path><path d="M211.19 601.19C391.83 599.71 545.68 423.81 910.53 419.4 1275.37 414.99 1425.43 187.32 1609.86 184.2" stroke="rgba(51,121,194,0.58)" stroke-width="2"></path><path d="M486.87 663.14C598.02 657.38 682.33 461.02 883.29 460.56 1084.25 460.1 1081.5 530.56 1279.7 530.56 1477.91 530.56 1575.48 460.83 1676.12 460.56" stroke="rgba(51,121,194,0.58)" stroke-width="2"></path><path d="M55.44 598.57C258.42 585.69 405.39 205.4 767.1 204.34 1128.82 203.28 1297.71 338.15 1478.77 338.74" stroke="rgba(51,121,194,0.58)" stroke-width="2"></path></g><defs><mask id="SvgjsMask1017"><rect width="1440" height="560" fill="#ffffff"></rect></mask></defs></svg>